<?xml version="1.0" standalone="no"?>
<!DOCTYPE svg PUBLIC "-//W3C//DTD SVG 20010904//EN"
 "http://www.w3.org/TR/2001/REC-SVG-20010904/DTD/svg10.dtd">
<svg version="1.0" xmlns="http://www.w3.org/2000/svg"
 width="1280.000000pt" height="719.000000pt" viewBox="0 0 1280.000000 719.000000"
 preserveAspectRatio="xMidYMid meet">

<g transform="translate(0.000000,719.000000) scale(0.100000,-0.100000)"
fill="#000000" stroke="none">
<path d="M0 3595 l0 -3595 6400 0 6400 0 0 3595 0 3595 -6400 0 -6400 0 0
-3595z m2250 2895 l0 -30 65 0 65 0 0 -30 c0 -27 3 -30 30 -30 27 0 30 -3 30
-30 0 -27 3 -30 30 -30 l30 0 0 -60 0 -60 30 0 30 0 0 -915 0 -915 -30 0 -30
0 0 -60 0 -60 -30 0 c-27 0 -30 -3 -30 -30 0 -27 -3 -30 -30 -30 -27 0 -30 -3
-30 -30 l0 -30 -65 0 -65 0 0 -35 0 -35 -820 0 -820 0 0 1220 0 1220 820 0
820 0 0 -30z m1770 -610 l0 -640 30 0 30 0 0 -60 0 -60 30 0 c27 0 30 -3 30
-30 l0 -30 125 0 125 0 0 30 c0 27 3 30 30 30 l30 0 0 60 0 60 30 0 30 0 0
640 0 640 245 0 245 0 0 -1065 0 -1065 -30 0 -30 0 0 -60 0 -60 -35 0 c-32 0
-35 -2 -35 -30 0 -27 -3 -30 -30 -30 -27 0 -30 -3 -30 -30 l0 -30 -60 0 -60 0
0 -35 0 -35 -670 0 -670 0 0 35 0 35 -60 0 -60 0 0 30 c0 27 -3 30 -30 30 -27
0 -30 3 -30 30 0 27 -3 30 -30 30 l-30 0 0 60 0 60 -30 0 -30 0 0 1065 0 1065
485 0 485 0 0 -640z m3110 610 l0 -30 60 0 60 0 0 -30 c0 -27 3 -30 30 -30 27
0 30 -3 30 -30 0 -27 3 -30 30 -30 l30 0 0 -60 0 -60 30 0 30 0 0 -275 0 -275
-240 0 -240 0 0 90 0 90 -30 0 -30 0 0 60 0 60 -35 0 c-32 0 -35 2 -35 30 l0
30 -120 0 -120 0 0 -30 c0 -27 -3 -30 -30 -30 l-30 0 0 -60 0 -60 -30 0 -30 0
0 -305 0 -305 30 0 30 0 0 -60 0 -60 30 0 c27 0 30 -3 30 -30 l0 -30 120 0
120 0 0 30 c0 28 3 30 35 30 l35 0 0 60 0 60 30 0 30 0 0 90 0 90 240 0 240 0
0 -515 0 -515 -30 0 -30 0 0 -60 0 -60 -30 0 c-27 0 -30 -3 -30 -30 0 -27 -3
-30 -30 -30 -27 0 -30 -3 -30 -30 l0 -30 -60 0 -60 0 0 -35 0 -35 -670 0 -670
0 0 35 0 35 -60 0 -60 0 0 30 c0 27 -3 30 -30 30 -27 0 -30 3 -30 30 0 28 -3
30 -35 30 l-35 0 0 60 0 60 -30 0 -30 0 0 915 0 915 30 0 30 0 0 60 0 60 35 0
c32 0 35 2 35 30 0 27 3 30 30 30 27 0 30 3 30 30 l0 30 60 0 60 0 0 30 0 30
670 0 670 0 0 -30z m1770 -455 l0 -485 90 0 90 0 0 30 0 30 60 0 60 0 0 30 c0
27 3 30 30 30 l30 0 0 60 0 60 30 0 30 0 0 60 0 60 30 0 30 0 0 305 0 305 245
0 245 0 0 -335 0 -335 -30 0 -30 0 0 -60 0 -60 -30 0 c-27 0 -30 -3 -30 -30 0
-27 -3 -30 -30 -30 -27 0 -30 -3 -30 -30 l0 -30 -60 0 -60 0 0 -60 0 -60 60 0
60 0 0 -35 c0 -32 2 -35 30 -35 27 0 30 -3 30 -30 0 -27 3 -30 30 -30 l30 0 0
-60 0 -60 30 0 30 0 0 -580 0 -580 -245 0 -245 0 0 335 0 335 -30 0 -30 0 0
65 0 65 -30 0 c-27 0 -30 3 -30 30 0 27 -3 30 -30 30 -27 0 -30 3 -30 30 l0
30 -60 0 -60 0 0 30 0 30 -90 0 -90 0 0 -490 0 -490 -490 0 -490 0 0 1220 0
1220 490 0 490 0 0 -485z m3410 -2500 l0 -65 -5850 0 -5850 0 0 65 0 65 5850
0 5850 0 0 -65z m-8290 -790 l0 -365 245 0 245 0 0 365 0 365 245 0 245 0 0
-1220 0 -1220 -245 0 -245 0 0 490 0 490 -245 0 -245 0 0 -490 0 -490 -485 0
-485 0 0 1220 0 1220 485 0 485 0 0 -365z m2440 -275 l0 -640 30 0 30 0 0 -60
0 -60 30 0 c27 0 30 -3 30 -30 l0 -30 120 0 120 0 0 30 c0 28 3 30 35 30 l35
0 0 60 0 60 30 0 30 0 0 640 0 640 240 0 240 0 0 -1065 0 -1065 -30 0 -30 0 0
-65 0 -65 -30 0 c-27 0 -30 -3 -30 -30 0 -27 -3 -30 -30 -30 -27 0 -30 -3 -30
-30 l0 -30 -60 0 -60 0 0 -30 0 -30 -670 0 -670 0 0 30 0 30 -60 0 -60 0 0 30
c0 27 -3 30 -30 30 -27 0 -30 3 -30 30 0 28 -3 30 -35 30 l-35 0 0 65 0 65
-30 0 -30 0 0 1065 0 1065 490 0 490 0 0 -640z m2440 395 l0 -245 90 0 90 0 0
-30 0 -30 60 0 60 0 0 -30 c0 -27 3 -30 30 -30 27 0 30 -3 30 -30 0 -27 3 -30
30 -30 l30 0 0 -60 0 -60 30 0 30 0 0 395 0 395 245 0 245 0 0 -1220 0 -1220
-245 0 -245 0 0 335 0 335 -30 0 -30 0 0 60 0 60 -30 0 c-27 0 -30 3 -30 30 0
27 -3 30 -30 30 -28 0 -30 3 -30 35 l0 35 -60 0 -60 0 0 30 0 30 -90 0 -90 0
0 -490 0 -490 -490 0 -490 0 0 1220 0 1220 490 0 490 0 0 -245z m3410 0 l0
-245 -245 0 -245 0 0 -975 0 -975 -485 0 -485 0 0 975 0 975 -245 0 -245 0 0
245 0 245 975 0 975 0 0 -245z"/>
<path d="M1700 6000 c0 -27 -3 -30 -30 -30 l-30 0 0 -60 0 -60 -30 0 -30 0 0
-305 0 -305 30 0 30 0 0 -60 0 -60 30 0 c27 0 30 -3 30 -30 l0 -30 125 0 125
0 0 30 c0 27 3 30 30 30 l30 0 0 60 0 60 30 0 30 0 0 305 0 305 -30 0 -30 0 0
60 0 60 -30 0 c-27 0 -30 3 -30 30 l0 30 -125 0 -125 0 0 -30z"/>
</g>
</svg>
